<?xml version="1.0" encoding="UTF-8"?>
<svg xmlns="http://www.w3.org/2000/svg" xmlns:xlink="http://www.w3.org/1999/xlink" width="2000pt" height="2000pt" viewBox="0 0 2000 2000" version="1.1">
<g id="surface1">
<rect x="0" y="0" width="2000" height="2000" style="fill:rgb(100%,100%,100%);fill-opacity:1;stroke:none;"/>
<path style=" stroke:none;fill-rule:nonzero;fill:rgb(96.875%,94.139099%,89.0625%);fill-opacity:1;" d="M 1711.269531 1322.949219 C 1687.171875 1268.128906 1640.878906 1222.378906 1585.28125 1199.871094 C 1527.371094 1176.421875 1460.871094 1184.949219 1399.871094 1177.101563 C 1346.890625 1170.269531 1308.671875 1146.621094 1277.03125 1104.570313 C 1246.71875 1064.28125 1219.550781 1019.660156 1169.988281 1001.019531 C 1130.828125 986.300781 1086.308594 990.378906 1047.390625 1005.730469 C 975.675781 1034 921.511719 1094.121094 875.890625 1154.019531 C 834.242188 1208.710938 800.269531 1268.589844 723.230469 1270.539063 C 688.367188 1271.429688 654.261719 1262.921875 620.175781 1254.410156 C 578.894531 1244.101563 537.648438 1233.789063 495.136719 1240.179688 C 392.550781 1255.578125 307.121094 1340.980469 289.21875 1442.640625 C 272.441406 1537.921875 314.542969 1630.339844 386.871094 1684.640625 L 1630.089844 1684.640625 C 1721.230469 1587.949219 1769.058594 1454.390625 1711.269531 1322.949219 "/>
<path style=" stroke:none;fill-rule:nonzero;fill:rgb(100%,100%,100%);fill-opacity:1;" d="M 587.417969 1684.640625 L 590.839844 1684.640625 C 614.589844 1658.53125 633.195313 1626.851563 645.019531 1591.691406 C 664.164063 1534.78125 663.355469 1475.050781 642.75 1423.511719 C 632.335938 1397.46875 617.296875 1373.191406 602.75 1349.710938 C 588 1325.910156 572.75 1301.289063 562.398438 1274.898438 C 558.117188 1264 554.957031 1252.28125 553.054688 1240.328125 C 552.195313 1240.21875 551.339844 1240.128906 550.480469 1240.03125 C 552.394531 1252.398438 555.644531 1264.53125 560.070313 1275.820313 C 570.503906 1302.410156 585.816406 1327.128906 600.625 1351.03125 C 615.113281 1374.421875 630.09375 1398.601563 640.425781 1424.441406 C 660.816406 1475.429688 661.605469 1534.550781 642.652344 1590.898438 C 630.679688 1626.488281 611.683594 1658.46875 587.417969 1684.640625 "/>
<path style=" stroke:none;fill-rule:nonzero;fill:rgb(100%,100%,100%);fill-opacity:1;" d="M 1624.078125 1576.210938 C 1649.699219 1581.671875 1674.378906 1586.570313 1698.261719 1589.648438 C 1698.671875 1588.859375 1699.058594 1588.058594 1699.46875 1587.269531 C 1675.398438 1584.210938 1650.480469 1579.28125 1624.609375 1573.769531 C 1585.210938 1565.371094 1542.558594 1556.289063 1500.269531 1556.289063 C 1474.078125 1556.289063 1448.03125 1559.769531 1422.96875 1569.058594 C 1413.46875 1572.578125 1404.320313 1577.039063 1395.609375 1582.359375 C 1372.980469 1572.710938 1350.230469 1562.179688 1327.699219 1550.628906 C 1344.050781 1538.308594 1360.570313 1526.238281 1377.28125 1514.578125 C 1501.25 1428.011719 1615.671875 1378.929688 1726.210938 1365 C 1725.988281 1364.191406 1725.761719 1363.378906 1725.53125 1362.570313 C 1614.691406 1376.609375 1500.03125 1425.820313 1375.839844 1512.53125 C 1358.789063 1524.441406 1341.921875 1536.769531 1325.230469 1549.351563 C 1299.878906 1536.261719 1274.851563 1521.871094 1250.609375 1505.988281 C 1206.660156 1477.191406 1154.371094 1436.078125 1108.710938 1381.460938 C 1285.660156 1361.601563 1465.808594 1336.589844 1612.929688 1238.269531 C 1618.511719 1234.53125 1624.699219 1230.128906 1631.109375 1225.140625 C 1630.398438 1224.628906 1629.691406 1224.140625 1628.96875 1223.640625 C 1622.828125 1228.398438 1616.898438 1232.601563 1611.539063 1236.191406 C 1464.460938 1334.488281 1283.96875 1359.308594 1106.800781 1379.160156 C 1074.53125 1340.128906 1045.699219 1294.28125 1025.660156 1241.210938 C 994.457031 1158.539063 996.105469 1077.421875 1030.191406 1018.640625 C 1031.671875 1016.089844 1033.230469 1013.570313 1034.839844 1011.078125 C 1033.421875 1011.738281 1032.011719 1012.421875 1030.601563 1013.089844 C 1029.71875 1014.511719 1028.859375 1015.941406 1028.019531 1017.378906 C 993.5625 1076.820313 991.851563 1158.71875 1023.320313 1242.101563 C 1043.25 1294.878906 1071.820313 1340.539063 1103.828125 1379.480469 C 1093.570313 1380.628906 1083.308594 1381.769531 1073.089844 1382.890625 C 1036.191406 1386.960938 998.039063 1391.179688 960.992188 1395.949219 C 947.46875 1397.691406 933.71875 1399.71875 920.035156 1402.261719 C 890.703125 1340.351563 858.480469 1279.960938 816.832031 1228.160156 C 816.234375 1228.761719 815.628906 1229.328125 815.027344 1229.921875 C 856.320313 1281.320313 888.34375 1341.269531 917.496094 1402.738281 C 857.816406 1414.121094 799.863281 1435.519531 768.921875 1485.320313 C 740.023438 1531.828125 740.050781 1596.121094 769 1676.398438 C 770 1679.179688 771.03125 1681.921875 772.078125 1684.640625 L 774.753906 1684.640625 C 773.609375 1681.660156 772.46875 1678.660156 771.351563 1675.550781 C 742.671875 1596.03125 742.570313 1532.46875 771.046875 1486.640625 C 801.621094 1437.429688 859.253906 1416.320313 918.601563 1405.070313 C 928.957031 1426.980469 938.960938 1449.058594 948.902344 1471.011719 L 949.984375 1473.398438 C 984.507813 1549.621094 1020.21875 1623.171875 1066.980469 1684.640625 L 1070.101563 1684.640625 C 1022.910156 1623.058594 987.003906 1549.058594 952.261719 1472.371094 L 951.179688 1469.980469 C 941.320313 1448.21875 931.402344 1426.320313 921.140625 1404.601563 C 934.5625 1402.121094 948.046875 1400.128906 961.3125 1398.429688 C 998.335938 1393.660156 1036.46875 1389.449219 1073.359375 1385.378906 C 1084.128906 1384.191406 1094.929688 1383 1105.730469 1381.789063 C 1151.828125 1437.269531 1204.78125 1478.949219 1249.238281 1508.078125 C 1273.210938 1523.789063 1297.96875 1538.039063 1323.019531 1551.03125 C 1280.488281 1583.191406 1239.121094 1617.03125 1198.738281 1650.078125 C 1184.75 1661.519531 1170.601563 1673.078125 1156.339844 1684.640625 L 1160.308594 1684.640625 C 1173.761719 1673.71875 1187.109375 1662.808594 1200.320313 1652.011719 C 1240.988281 1618.738281 1282.648438 1584.648438 1325.480469 1552.300781 C 1347.890625 1563.828125 1370.511719 1574.339844 1393.019531 1583.96875 C 1362.230469 1603.550781 1337.128906 1633.878906 1321.960938 1670.699219 C 1320.058594 1675.308594 1318.398438 1679.960938 1316.859375 1684.640625 L 1319.5 1684.640625 C 1320.949219 1680.28125 1322.5 1675.949219 1324.269531 1671.648438 C 1339.488281 1634.730469 1364.789063 1604.429688 1395.820313 1585.160156 C 1458.738281 1611.890625 1520.570313 1631.730469 1573.710938 1647.449219 L 1575.710938 1648.039063 C 1598.101563 1654.671875 1621 1661.449219 1641.261719 1672.351563 C 1641.820313 1671.699219 1642.390625 1671.058594 1642.949219 1670.410156 C 1622.371094 1659.238281 1599.128906 1652.359375 1576.410156 1645.648438 L 1574.410156 1645.058594 C 1521.820313 1629.488281 1460.699219 1609.890625 1398.449219 1583.558594 C 1406.558594 1578.738281 1415.050781 1574.660156 1423.839844 1571.398438 C 1488.699219 1547.371094 1560.628906 1562.691406 1624.078125 1576.210938 "/>
<path style=" stroke:none;fill-rule:nonzero;fill:rgb(100%,100%,100%);fill-opacity:1;" d="M 393.136719 1414.28125 C 404.179688 1459.46875 399.253906 1508.28125 379.621094 1548.199219 C 366.761719 1574.339844 348.191406 1598 325.316406 1618.328125 C 325.773438 1619.039063 326.238281 1619.738281 326.699219 1620.441406 C 349.945313 1599.851563 368.8125 1575.839844 381.863281 1549.300781 C 401.753906 1508.871094 406.746094 1459.441406 395.566406 1413.679688 C 386.832031 1377.929688 369.269531 1347.648438 345.007813 1325.738281 C 344.46875 1326.371094 343.929688 1327.011719 343.398438 1327.648438 C 367.253906 1349.230469 384.53125 1379.050781 393.136719 1414.28125 "/>
<path style=" stroke:none;fill-rule:nonzero;fill:rgb(96.875%,94.139099%,89.0625%);fill-opacity:1;" d="M 958.957031 841.71875 C 980.738281 863.96875 990.5 901.460938 978.488281 936.03125 C 966.863281 969.5 941.375 997.21875 910.75 1015.050781 C 886.113281 1029.390625 853.972656 1037.300781 829.738281 1022.28125 C 811.632813 1011.058594 802.242188 989.039063 801.71875 967.75 C 801.199219 946.449219 808.359375 925.691406 817.210938 906.320313 C 829.6875 879 846.484375 852.519531 871.5 835.910156 C 905.984375 813.011719 938.023438 820.320313 958.957031 841.71875 "/>
<path style=" stroke:none;fill-rule:nonzero;fill:rgb(91.40625%,86.71875%,79.296875%);fill-opacity:1;" d="M 493.679688 447.769531 L 666.519531 447.769531 L 666.519531 374.699219 L 493.679688 374.699219 Z M 670.269531 451.519531 L 489.929688 451.519531 L 489.929688 370.949219 L 670.269531 370.949219 L 670.269531 451.519531 "/>
<path style=" stroke:none;fill-rule:nonzero;fill:rgb(91.40625%,86.71875%,79.296875%);fill-opacity:1;" d="M 376.355469 524.808594 L 549.195313 524.808594 L 549.195313 451.75 L 376.355469 451.75 Z M 552.945313 528.558594 L 372.605469 528.558594 L 372.605469 448 L 552.945313 448 L 552.945313 528.558594 "/>
<path style=" stroke:none;fill-rule:nonzero;fill:rgb(89.451599%,60.742188%,19.213867%);fill-opacity:1;" d="M 1696.371094 614.410156 C 1684.691406 575.578125 1664.148438 539.929688 1634.75 507.339844 C 1605.289063 474.75 1565.109375 447.839844 1514.210938 426.558594 C 1463.308594 405.28125 1398.640625 394.640625 1320.191406 394.640625 C 1257.621094 394.640625 1193.851563 403.078125 1128.878906 419.960938 C 1063.839844 436.898438 1007.441406 460.988281 959.59375 492.300781 L 1021.871094 663.269531 L 988.492188 690.308594 L 1036.898438 704.539063 C 1084.679688 679.53125 1128.21875 661.371094 1167.5 650.058594 C 1206.71875 638.808594 1248.398438 633.179688 1292.589844 633.179688 C 1336.71875 633.179688 1370.128906 643.820313 1392.828125 665.101563 C 1415.519531 686.441406 1426.839844 712.058594 1426.839844 742.148438 C 1426.839844 778.46875 1415.171875 810.691406 1391.929688 838.878906 C 1368.578125 867.070313 1342.828125 895.558594 1314.628906 924.371094 C 1295.039063 944.359375 1276 965.03125 1257.621094 986.308594 C 1239.238281 1007.648438 1222.949219 1030.460938 1208.878906 1054.921875 C 1194.738281 1079.308594 1183.429688 1105.609375 1174.859375 1133.800781 C 1166.238281 1161.988281 1161.988281 1193.601563 1161.988281 1228.640625 C 1161.988281 1239.949219 1162.230469 1253.398438 1162.890625 1269.058594 C 1163 1271.941406 1163.148438 1274.761719 1163.320313 1277.539063 L 1117.558594 1277.539063 L 1167.5 1311.308594 L 1410.308594 1311.308594 C 1409.058594 1303.789063 1408.460938 1295.039063 1408.460938 1285.019531 C 1408.460938 1274.988281 1408.460938 1267.46875 1408.460938 1262.449219 C 1408.460938 1241.171875 1412.769531 1220.199219 1421.328125 1199.53125 C 1429.898438 1178.859375 1440.671875 1159.171875 1453.550781 1140.339844 C 1466.421875 1121.570313 1480.789063 1103.710938 1496.78125 1086.839844 C 1512.710938 1069.898438 1528.039063 1053.941406 1542.769531 1038.898438 C 1562.351563 1018.898438 1582.589844 997.621094 1603.429688 975.058594 C 1624.269531 952.488281 1642.710938 928.769531 1658.640625 903.699219 C 1674.570313 878.628906 1687.738281 851.421875 1698.160156 821.941406 C 1708.578125 792.53125 1713.851563 760.308594 1713.851563 725.210938 C 1713.851563 690.171875 1707.980469 653.238281 1696.371094 614.410156 "/>
<path style=" stroke:none;fill-rule:nonzero;fill:rgb(98.4375%,76.5625%,26.268005%);fill-opacity:1;" d="M 1241.179688 621.25 C 1197.511719 621.25 1156.320313 626.699219 1117.558594 637.589844 C 1078.738281 648.53125 1035.710938 666.109375 988.492188 690.308594 L 912.09375 484.910156 C 959.375 454.609375 1015.121094 431.289063 1079.390625 414.898438 C 1143.601563 398.558594 1206.621094 390.398438 1268.460938 390.398438 C 1345.988281 390.398438 1409.898438 400.699219 1460.199219 421.289063 C 1510.5 441.878906 1550.210938 467.921875 1579.328125 499.460938 C 1608.378906 531.011719 1628.679688 565.511719 1640.21875 603.089844 C 1651.699219 640.660156 1657.5 676.410156 1657.5 710.320313 C 1657.5 744.28125 1652.289063 775.46875 1642 803.941406 C 1631.699219 832.460938 1618.679688 858.789063 1602.941406 883.058594 C 1587.199219 907.320313 1568.96875 930.28125 1548.378906 952.121094 C 1527.78125 973.960938 1507.78125 994.550781 1488.429688 1013.898438 C 1473.871094 1028.460938 1458.71875 1043.898438 1442.980469 1060.300781 C 1427.179688 1076.628906 1412.980469 1093.910156 1400.25 1112.078125 C 1387.53125 1130.300781 1376.878906 1149.359375 1368.421875 1169.359375 C 1359.949219 1189.359375 1355.691406 1209.660156 1355.691406 1230.25 C 1355.691406 1235.109375 1355.691406 1242.390625 1355.691406 1252.089844 C 1355.691406 1261.800781 1356.28125 1270.261719 1357.53125 1277.539063 L 1117.558594 1277.539063 C 1115.070313 1265.410156 1113.589844 1251.800781 1113 1236.648438 C 1112.351563 1221.5 1112.109375 1208.480469 1112.109375 1197.53125 C 1112.109375 1163.621094 1116.320313 1133.03125 1124.839844 1105.738281 C 1133.300781 1078.460938 1144.480469 1053.019531 1158.449219 1029.398438 C 1172.359375 1005.730469 1188.449219 983.660156 1206.621094 963.011719 C 1224.789063 942.410156 1243.609375 922.410156 1262.960938 903.058594 C 1290.828125 875.191406 1316.28125 847.609375 1339.359375 820.328125 C 1362.320313 793.050781 1373.859375 761.859375 1373.859375 726.710938 C 1373.859375 697.589844 1362.671875 672.800781 1340.25 652.140625 C 1317.820313 631.550781 1284.800781 621.25 1241.179688 621.25 "/>
<path style=" stroke:none;fill-rule:nonzero;fill:rgb(89.451599%,60.742188%,19.213867%);fill-opacity:1;" d="M 1426.929688 1547 C 1426.929688 1590.78125 1412.761719 1624.558594 1384.421875 1648.390625 C 1356.070313 1672.269531 1324.039063 1684.160156 1288.269531 1684.160156 C 1252.449219 1684.160156 1220.421875 1672.269531 1192.078125 1648.390625 C 1163.78125 1624.558594 1149.609375 1590.78125 1149.609375 1547 C 1149.609375 1503.28125 1163.78125 1469.5 1192.078125 1445.621094 C 1235.710938 1408.800781 1300.25 1400.589844 1351.339844 1426.429688 C 1396.660156 1449.371094 1426.929688 1495.929688 1426.929688 1547 "/>
<path style=" stroke:none;fill-rule:nonzero;fill:rgb(98.4375%,76.5625%,26.268005%);fill-opacity:1;" d="M 1379.429688 1547 C 1379.429688 1590.78125 1365.261719 1624.558594 1336.921875 1648.390625 C 1308.570313 1672.269531 1276.539063 1684.160156 1240.769531 1684.160156 C 1204.949219 1684.160156 1172.921875 1672.269531 1144.578125 1648.390625 C 1116.28125 1624.558594 1102.109375 1590.78125 1102.109375 1547 C 1102.109375 1503.28125 1116.28125 1469.5 1144.578125 1445.621094 C 1172.921875 1421.789063 1204.949219 1409.851563 1240.769531 1409.851563 C 1276.539063 1409.851563 1308.570313 1421.789063 1336.921875 1445.621094 C 1365.261719 1469.5 1379.429688 1503.28125 1379.429688 1547 "/>
<path style=" stroke:none;fill-rule:nonzero;fill:rgb(82.8125%,87.5%,100%);fill-opacity:1;" d="M 656.464844 906.800781 C 664.617188 918.71875 661.570313 934.988281 649.648438 943.148438 C 637.730469 951.300781 621.457031 948.25 613.300781 936.328125 C 605.144531 924.410156 608.195313 908.140625 620.113281 899.980469 C 632.03125 891.828125 648.308594 894.878906 656.464844 906.800781 "/>
<path style=" stroke:none;fill-rule:nonzero;fill:rgb(82.8125%,87.5%,100%);fill-opacity:1;" d="M 673.074219 975.5 C 671.578125 983.480469 663.847656 988.738281 655.808594 987.230469 C 647.765625 985.71875 642.460938 978.03125 643.957031 970.039063 C 645.453125 962.058594 653.1875 956.808594 661.226563 958.320313 C 669.265625 959.820313 674.570313 967.519531 673.074219 975.5 "/>
<path style=" stroke:none;fill-rule:nonzero;fill:rgb(82.8125%,87.5%,100%);fill-opacity:1;" d="M 671.554688 808.871094 C 661.078125 864.761719 607.277344 901.570313 551.386719 891.101563 C 495.496094 880.621094 458.679688 826.820313 469.15625 770.929688 C 479.628906 715.039063 533.429688 678.21875 589.320313 688.699219 C 645.210938 699.179688 682.027344 752.980469 671.554688 808.871094 "/>
<path style=" stroke:none;fill-rule:nonzero;fill:rgb(100%,100%,100%);fill-opacity:1;" d="M 543.792969 789.898438 C 543.792969 797.058594 537.984375 802.871094 530.820313 802.871094 C 523.65625 802.871094 517.847656 797.058594 517.847656 789.898438 C 517.847656 782.730469 523.65625 776.929688 530.820313 776.929688 C 537.984375 776.929688 543.792969 782.730469 543.792969 789.898438 "/>
<path style=" stroke:none;fill-rule:nonzero;fill:rgb(100%,100%,100%);fill-opacity:1;" d="M 583.324219 789.898438 C 583.324219 797.058594 577.519531 802.871094 570.355469 802.871094 C 563.1875 802.871094 557.382813 797.058594 557.382813 789.898438 C 557.382813 782.730469 563.1875 776.929688 570.355469 776.929688 C 577.519531 776.929688 583.324219 782.730469 583.324219 789.898438 "/>
<path style=" stroke:none;fill-rule:nonzero;fill:rgb(100%,100%,100%);fill-opacity:1;" d="M 622.859375 789.898438 C 622.859375 797.058594 617.054688 802.871094 609.886719 802.871094 C 602.722656 802.871094 596.914063 797.058594 596.914063 789.898438 C 596.914063 782.730469 602.722656 776.929688 609.886719 776.929688 C 617.054688 776.929688 622.859375 782.730469 622.859375 789.898438 "/>
<path style=" stroke:none;fill-rule:nonzero;fill:rgb(6.272888%,12.547302%,28.24707%);fill-opacity:1;" d="M 496.597656 1632.621094 L 506.214844 1669.710938 C 508.726563 1679.378906 518.078125 1685.921875 528.421875 1685.210938 C 559.964844 1683.070313 625.503906 1675.339844 663.117188 1647.621094 L 652.425781 1594.171875 C 600.707031 1591.238281 552.339844 1594.121094 510.460938 1608.21875 C 499.972656 1611.75 493.910156 1622.261719 496.597656 1632.621094 "/>
<path style=" stroke:none;fill-rule:nonzero;fill:rgb(100%,100%,100%);fill-opacity:1;" d="M 556.875 1662.140625 C 556.328125 1662.140625 555.824219 1661.78125 555.671875 1661.230469 L 542.753906 1614.980469 C 542.570313 1614.308594 542.957031 1613.621094 543.621094 1613.441406 C 544.292969 1613.25 544.976563 1613.640625 545.164063 1614.308594 L 558.078125 1660.558594 C 558.265625 1661.21875 557.875 1661.910156 557.210938 1662.101563 C 557.097656 1662.128906 556.984375 1662.140625 556.875 1662.140625 "/>
<path style=" stroke:none;fill-rule:nonzero;fill:rgb(100%,100%,100%);fill-opacity:1;" d="M 584.789063 1655.890625 C 584.242188 1655.890625 583.742188 1655.53125 583.585938 1654.980469 L 570.671875 1608.730469 C 570.484375 1608.058594 570.875 1607.371094 571.539063 1607.191406 C 572.207031 1607 572.894531 1607.390625 573.078125 1608.058594 L 585.996094 1654.308594 C 586.179688 1654.96875 585.792969 1655.660156 585.128906 1655.851563 C 585.015625 1655.878906 584.902344 1655.890625 584.789063 1655.890625 "/>
<path style=" stroke:none;fill-rule:nonzero;fill:rgb(98.4375%,76.5625%,26.268005%);fill-opacity:1;" d="M 617.214844 1432.140625 L 497.011719 1467.820313 L 586.277344 1590.128906 L 714.4375 1600.320313 L 891.207031 1525.578125 L 824.035156 1424.5 L 617.214844 1432.140625 "/>
<path style=" stroke:none;fill-rule:nonzero;fill:rgb(98.4375%,76.5625%,26.268005%);fill-opacity:1;" d="M 765.40625 1449.128906 C 1029.378906 1370.988281 1071.808594 1604.289063 659.933594 1646.761719 C 645.386719 1630.390625 628.382813 1601.980469 621.632813 1578.238281 L 839.136719 1477.730469 L 765.40625 1449.128906 "/>
<path style=" stroke:none;fill-rule:nonzero;fill:rgb(97.65625%,70.117188%,51.756287%);fill-opacity:1;" d="M 776.617188 1616.328125 C 764.273438 1612.378906 752.441406 1604.570313 752.441406 1604.570313 L 710.019531 1617.878906 L 719.738281 1664.03125 L 763.8125 1672.980469 C 777.238281 1648.429688 778.019531 1628.261719 776.617188 1616.328125 "/>
<path style=" stroke:none;fill-rule:nonzero;fill:rgb(89.451599%,60.742188%,19.213867%);fill-opacity:1;" d="M 622.574219 1579.859375 L 620.691406 1576.621094 C 666.066406 1550.25 782.292969 1486.890625 881.320313 1468.210938 L 882.015625 1471.898438 C 783.558594 1490.46875 667.78125 1553.589844 622.574219 1579.859375 "/>
<path style=" stroke:none;fill-rule:nonzero;fill:rgb(98.4375%,76.5625%,26.268005%);fill-opacity:1;" d="M 617.214844 1432.140625 C 371.503906 1385.429688 307.867188 1621.558594 719.738281 1664.03125 C 734.289063 1647.660156 745.691406 1628.308594 752.441406 1604.570313 C 689.175781 1562.238281 618.4375 1522 540.90625 1483.671875 L 617.214844 1432.140625 "/>
<path style=" stroke:none;fill-rule:nonzero;fill:rgb(89.451599%,60.742188%,19.213867%);fill-opacity:1;" d="M 751.4375 1606.148438 C 739.746094 1598.710938 727.566406 1590.851563 714.675781 1582.519531 C 649.945313 1540.730469 576.585938 1493.371094 514.253906 1466.359375 L 515.746094 1462.921875 C 578.359375 1490.050781 651.859375 1537.5 716.707031 1579.371094 C 729.597656 1587.699219 741.769531 1595.558594 753.449219 1602.988281 L 751.4375 1606.148438 "/>
<path style=" stroke:none;fill-rule:nonzero;fill:rgb(89.451599%,60.742188%,19.213867%);fill-opacity:1;" d="M 436.9375 1549.21875 L 433.65625 1547.410156 C 442.878906 1530.710938 457.652344 1519.449219 477.5625 1513.941406 L 478.5625 1517.550781 C 459.394531 1522.859375 445.777344 1533.21875 436.9375 1549.21875 "/>
<path style=" stroke:none;fill-rule:nonzero;fill:rgb(89.451599%,60.742188%,19.213867%);fill-opacity:1;" d="M 949.769531 1535.011719 C 940.929688 1519.011719 927.3125 1508.648438 908.144531 1503.328125 L 909.144531 1499.71875 C 929.058594 1505.238281 943.828125 1516.5 953.054688 1533.199219 L 949.769531 1535.011719 "/>
<path style=" stroke:none;fill-rule:nonzero;fill:rgb(89.451599%,60.742188%,19.213867%);fill-opacity:1;" d="M 696.730469 1661.960938 L 693.988281 1659.398438 C 713.644531 1638.351563 725.71875 1616.121094 730.894531 1591.460938 L 734.566406 1592.230469 C 729.242188 1617.578125 716.867188 1640.390625 696.730469 1661.960938 "/>
<path style=" stroke:none;fill-rule:nonzero;fill:rgb(6.272888%,12.547302%,28.24707%);fill-opacity:1;" d="M 899.160156 1602.589844 C 867.679688 1583.140625 806.652344 1616.75 791.332031 1618.441406 C 786.863281 1618.941406 781.699219 1617.960938 776.617188 1616.328125 C 778.019531 1628.261719 777.238281 1648.429688 763.8125 1672.980469 L 771.296875 1674.5 C 771.296875 1674.5 823.050781 1693.480469 877.949219 1682.429688 C 928.621094 1672.238281 923.910156 1617.878906 899.160156 1602.589844 "/>
<path style=" stroke:none;fill-rule:nonzero;fill:rgb(100%,100%,100%);fill-opacity:1;" d="M 856.25 1666.210938 C 856.125 1666.210938 856 1666.191406 855.875 1666.148438 C 855.214844 1665.941406 854.851563 1665.238281 855.058594 1664.578125 C 858.796875 1652.738281 860.429688 1629.441406 849.597656 1613.789063 C 849.203125 1613.21875 849.347656 1612.449219 849.914063 1612.050781 C 850.480469 1611.660156 851.257813 1611.800781 851.652344 1612.371094 C 862.996094 1628.75 861.328125 1653.019531 857.441406 1665.328125 C 857.273438 1665.859375 856.78125 1666.210938 856.25 1666.210938 "/>
<path style=" stroke:none;fill-rule:nonzero;fill:rgb(100%,100%,100%);fill-opacity:1;" d="M 831.5625 1670.890625 C 831.4375 1670.890625 831.3125 1670.871094 831.1875 1670.828125 C 830.527344 1670.628906 830.164063 1669.921875 830.371094 1669.269531 C 834.109375 1657.421875 835.742188 1634.128906 824.910156 1618.480469 C 824.515625 1617.910156 824.65625 1617.128906 825.226563 1616.738281 C 825.792969 1616.351563 826.570313 1616.488281 826.964844 1617.058594 C 838.308594 1633.441406 836.644531 1657.710938 832.753906 1670.019531 C 832.585938 1670.550781 832.09375 1670.890625 831.5625 1670.890625 "/>
<path style=" stroke:none;fill-rule:nonzero;fill:rgb(97.65625%,70.117188%,51.756287%);fill-opacity:1;" d="M 573.742188 1127.679688 C 573.742188 1127.679688 635.625 1075.058594 633.332031 1065.058594 C 631.695313 1057.910156 614.167969 1068.390625 614.167969 1068.390625 C 614.167969 1068.390625 638.75 1039.230469 637.5 1035.679688 C 635.265625 1029.359375 618.265625 1041.148438 618.265625 1041.148438 C 618.265625 1041.148438 629.757813 1024.609375 624.261719 1021.921875 C 618.769531 1019.21875 606.789063 1029.421875 606.789063 1029.421875 C 606.789063 1029.421875 613.789063 1020.230469 610.5 1017.820313 C 607.210938 1015.410156 593.027344 1025.320313 593.027344 1025.320313 C 593.027344 1025.320313 598.117188 1013.738281 587.304688 1018.128906 C 576.492188 1022.519531 500.671875 1092.101563 500.671875 1092.101563 L 573.742188 1127.679688 "/>
<path style=" stroke:none;fill-rule:nonzero;fill:rgb(88.671875%,54.492188%,42.747498%);fill-opacity:1;" d="M 599.0625 1065.269531 C 598.761719 1065.269531 598.460938 1065.160156 598.21875 1064.941406 C 587.597656 1055.238281 582.914063 1052.878906 571.195313 1049.269531 C 570.535156 1049.070313 570.164063 1048.371094 570.367188 1047.710938 C 570.570313 1047.050781 571.269531 1046.679688 571.929688 1046.890625 C 584.070313 1050.621094 588.921875 1053.058594 599.90625 1063.089844 C 600.414063 1063.558594 600.449219 1064.351563 599.984375 1064.859375 C 599.738281 1065.128906 599.402344 1065.269531 599.0625 1065.269531 "/>
<path style=" stroke:none;fill-rule:nonzero;fill:rgb(88.671875%,54.492188%,42.747498%);fill-opacity:1;" d="M 580.417969 1093.808594 L 580.242188 1093.800781 C 579.558594 1093.699219 579.082031 1093.070313 579.179688 1092.390625 C 580.394531 1083.691406 583.132813 1078.25 587.554688 1075.761719 C 591.328125 1073.640625 596.246094 1073.859375 602.160156 1076.410156 C 602.796875 1076.691406 603.089844 1077.421875 602.8125 1078.050781 C 602.539063 1078.691406 601.804688 1078.980469 601.171875 1078.710938 C 596.011719 1076.480469 591.839844 1076.21875 588.777344 1077.941406 C 585.136719 1079.988281 582.738281 1084.96875 581.652344 1092.730469 C 581.566406 1093.359375 581.03125 1093.808594 580.417969 1093.808594 "/>
<path style=" stroke:none;fill-rule:nonzero;fill:rgb(88.671875%,54.492188%,42.747498%);fill-opacity:1;" d="M 577.5 1041.210938 C 577.167969 1041.210938 576.835938 1041.070313 576.589844 1040.808594 C 576.117188 1040.308594 576.140625 1039.519531 576.644531 1039.050781 L 592.171875 1024.410156 C 592.671875 1023.941406 593.464844 1023.960938 593.9375 1024.460938 C 594.410156 1024.96875 594.386719 1025.761719 593.886719 1026.230469 L 578.355469 1040.859375 C 578.117188 1041.089844 577.808594 1041.210938 577.5 1041.210938 "/>
<path style=" stroke:none;fill-rule:nonzero;fill:rgb(88.671875%,54.492188%,42.747498%);fill-opacity:1;" d="M 591.875 1046.210938 C 591.5625 1046.210938 591.253906 1046.089844 591.007813 1045.859375 C 590.511719 1045.378906 590.496094 1044.589844 590.972656 1044.089844 L 605.886719 1028.550781 C 606.367188 1028.050781 607.15625 1028.03125 607.65625 1028.511719 C 608.152344 1028.988281 608.171875 1029.78125 607.691406 1030.28125 L 592.777344 1045.820313 C 592.53125 1046.078125 592.203125 1046.210938 591.875 1046.210938 "/>
<path style=" stroke:none;fill-rule:nonzero;fill:rgb(88.671875%,54.492188%,42.747498%);fill-opacity:1;" d="M 606.5625 1054.960938 C 606.257813 1054.960938 605.949219 1054.839844 605.710938 1054.621094 C 605.203125 1054.148438 605.175781 1053.359375 605.648438 1052.851563 L 617.351563 1040.300781 C 617.820313 1039.800781 618.609375 1039.769531 619.117188 1040.238281 C 619.621094 1040.710938 619.648438 1041.5 619.179688 1042 L 607.476563 1054.558594 C 607.230469 1054.820313 606.898438 1054.960938 606.5625 1054.960938 "/>
<path style=" stroke:none;fill-rule:nonzero;fill:rgb(22.75238%,41.967773%,91.796875%);fill-opacity:1;" d="M 807.5 1479.640625 L 581.25 1488.390625 L 556.25 1282.140625 C 556.25 1282.140625 631.992188 1210.289063 661.132813 1183.839844 L 710.328125 1181.320313 C 862.960938 1250.691406 837.96875 1337.339844 807.5 1479.640625 "/>
<path style=" stroke:none;fill-rule:nonzero;fill:rgb(22.75238%,41.967773%,91.796875%);fill-opacity:1;" d="M 710.328125 1181.320313 C 710.328125 1181.320313 884.949219 1196.25 940 1315.890625 C 993.867188 1432.949219 772.5 1474.640625 772.5 1474.640625 L 710.328125 1181.320313 "/>
<path style=" stroke:none;fill-rule:nonzero;fill:rgb(22.75238%,41.967773%,91.796875%);fill-opacity:1;" d="M 510.726563 1206.949219 L 582.886719 1119.140625 L 515.40625 1078.238281 C 487.257813 1097.820313 432.828125 1142.148438 386.699219 1192.351563 C 376.515625 1203.429688 368.5625 1216.371094 364.558594 1230.621094 C 361.140625 1242.78125 360.519531 1254.789063 362.441406 1266.550781 C 367.445313 1297.210938 391.5625 1320.871094 423.75 1324.640625 C 451.242188 1327.859375 556.25 1319.640625 641.25 1294.640625 L 666.25 1198.148438 C 653.402344 1190.859375 557.925781 1189.589844 510.726563 1206.949219 "/>
<path style=" stroke:none;fill-rule:nonzero;fill:rgb(84.764099%,88.28125%,98.4375%);fill-opacity:1;" d="M 806.664063 1237.101563 C 795.191406 1237.101563 778.554688 1234.53125 772.484375 1220.691406 C 768.476563 1211.558594 771.300781 1201.511719 775.703125 1194.339844 C 776.324219 1194.519531 776.945313 1194.699219 777.574219 1194.878906 C 773.277344 1201.640625 770.402344 1211.28125 774.203125 1219.941406 C 779.851563 1232.820313 795.617188 1235.230469 806.609375 1235.230469 C 810.480469 1235.230469 813.757813 1234.929688 815.796875 1234.679688 C 828.8125 1233.109375 842.015625 1230.101563 854.8125 1227.148438 C 855.601563 1227.609375 856.394531 1228.070313 857.183594 1228.53125 C 856.808594 1228.621094 856.429688 1228.710938 856.054688 1228.789063 C 842.957031 1231.808594 829.410156 1234.929688 816.019531 1236.539063 C 813.9375 1236.789063 810.605469 1237.101563 806.664063 1237.101563 "/>
<path style=" stroke:none;fill-rule:nonzero;fill:rgb(84.764099%,88.28125%,98.4375%);fill-opacity:1;" d="M 894.136719 1429.128906 C 885.289063 1417.929688 880.648438 1405.199219 881.210938 1393.058594 C 882.035156 1375.238281 895.636719 1359.53125 911.527344 1358.019531 C 912.507813 1357.929688 913.480469 1357.890625 914.449219 1357.890625 C 922.445313 1357.890625 930.105469 1360.851563 937.546875 1363.71875 C 940.523438 1364.871094 943.542969 1366.03125 946.601563 1367.019531 C 946.457031 1367.628906 946.300781 1368.230469 946.140625 1368.839844 C 943 1367.828125 939.910156 1366.648438 936.871094 1365.46875 C 929.277344 1362.539063 922.0625 1359.761719 914.480469 1359.761719 C 913.558594 1359.761719 912.632813 1359.800781 911.703125 1359.890625 C 896.703125 1361.308594 883.867188 1376.21875 883.082031 1393.140625 C 882.539063 1404.890625 887.078125 1417.25 895.726563 1428.121094 C 895.199219 1428.460938 894.667969 1428.800781 894.136719 1429.128906 "/>
<path style=" stroke:none;fill-rule:nonzero;fill:rgb(84.764099%,88.28125%,98.4375%);fill-opacity:1;" d="M 411.628906 1322.171875 C 410.976563 1321.980469 410.351563 1321.738281 409.707031 1321.53125 C 419.492188 1310.28125 433.730469 1301.78125 450.332031 1297.480469 C 456.628906 1295.851563 462.734375 1295.050781 468.476563 1295.050781 C 479.722656 1295.050781 489.585938 1298.128906 496.800781 1304.089844 C 502.171875 1308.539063 505.890625 1314.308594 508.558594 1320.488281 C 507.910156 1320.558594 507.265625 1320.640625 506.621094 1320.710938 C 504.074219 1314.960938 500.566406 1309.640625 495.605469 1305.539063 C 488.726563 1299.851563 479.289063 1296.921875 468.488281 1296.921875 C 462.902344 1296.921875 456.949219 1297.710938 450.800781 1299.300781 C 434.859375 1303.421875 421.148438 1311.488281 411.628906 1322.171875 "/>
<path style=" stroke:none;fill-rule:nonzero;fill:rgb(84.764099%,88.28125%,98.4375%);fill-opacity:1;" d="M 398.242188 1180.078125 C 399.058594 1179.238281 399.871094 1178.390625 400.6875 1177.550781 C 419.957031 1172.558594 438.714844 1165.648438 456.054688 1155.660156 C 462.835938 1151.761719 470.480469 1146.789063 475.789063 1139.578125 C 481.300781 1132.101563 483.148438 1123.238281 480.734375 1115.898438 C 479.785156 1113.011719 478.097656 1110.480469 475.988281 1108.46875 C 476.46875 1108.078125 476.953125 1107.679688 477.429688 1107.289063 C 479.6875 1109.480469 481.496094 1112.199219 482.515625 1115.308594 C 485.117188 1123.230469 483.167969 1132.71875 477.300781 1140.699219 C 471.78125 1148.191406 463.9375 1153.289063 456.992188 1157.289063 C 438.605469 1167.878906 418.671875 1175.011719 398.242188 1180.078125 "/>
<path style=" stroke:none;fill-rule:nonzero;fill:rgb(97.65625%,70.117188%,51.756287%);fill-opacity:1;" d="M 726.308594 1135.460938 L 726.277344 1138.660156 L 725.769531 1188.390625 L 725.707031 1193.78125 C 725.613281 1202.210938 722.15625 1209.851563 716.578125 1215.398438 C 711.03125 1220.910156 703.394531 1224.371094 694.929688 1224.429688 C 677.878906 1224.519531 663.933594 1210.828125 663.773438 1193.75 L 663.171875 1132.289063 L 726.308594 1135.460938 "/>
<path style=" stroke:none;fill-rule:nonzero;fill:rgb(6.272888%,12.547302%,28.24707%);fill-opacity:1;" d="M 726.277344 1138.660156 L 725.769531 1188.390625 C 698.132813 1177.140625 686.753906 1147.21875 686.753906 1147.21875 L 726.277344 1138.660156 "/>
<path style=" stroke:none;fill-rule:nonzero;fill:rgb(97.65625%,70.117188%,51.756287%);fill-opacity:1;" d="M 737.214844 1051.878906 C 747.117188 1063.769531 776.039063 1131.121094 746.722656 1154.101563 C 713.730469 1179.960938 663.519531 1137.460938 663.519531 1137.460938 L 656.785156 1059.011719 L 700.367188 1047.519531 L 737.214844 1051.878906 "/>
<path style=" stroke:none;fill-rule:nonzero;fill:rgb(6.272888%,12.547302%,28.24707%);fill-opacity:1;" d="M 634.582031 1047.558594 C 634.582031 1047.558594 537.917969 1097.980469 616.734375 1243.308594 C 626.859375 1261.96875 649.28125 1270.121094 668.464844 1261.011719 C 689.042969 1251.238281 696.832031 1226.101563 685.660156 1206.25 C 672.765625 1183.351563 660.320313 1153.859375 665.632813 1131.910156 L 634.582031 1047.558594 "/>
<path style=" stroke:none;fill-rule:nonzero;fill:rgb(98.4375%,76.5625%,26.268005%);fill-opacity:1;" d="M 669.859375 1071.421875 C 669.859375 1085.871094 658.152344 1097.570313 643.710938 1097.570313 C 629.269531 1097.570313 617.5625 1085.871094 617.5625 1071.421875 C 617.5625 1056.980469 629.269531 1045.28125 643.710938 1045.28125 C 658.152344 1045.28125 669.859375 1056.980469 669.859375 1071.421875 "/>
<path style=" stroke:none;fill-rule:nonzero;fill:rgb(6.272888%,12.547302%,28.24707%);fill-opacity:1;" d="M 675.878906 1102.839844 C 673.054688 1086.53125 671.332031 1075.339844 687.820313 1066.929688 C 687.820313 1066.929688 745.929688 1077.5 757.023438 1055.578125 C 768.117188 1033.648438 751.210938 999.050781 715.820313 1023.089844 C 625.222656 1005.390625 613.074219 1090.179688 640.542969 1118.441406 L 667.652344 1114.28125 C 673.109375 1113.441406 676.820313 1108.28125 675.878906 1102.839844 "/>
<path style=" stroke:none;fill-rule:nonzero;fill:rgb(6.272888%,12.547302%,28.24707%);fill-opacity:1;" d="M 724.734375 1102.890625 C 724.734375 1105.019531 723.003906 1106.75 720.871094 1106.75 C 718.738281 1106.75 717.007813 1105.019531 717.007813 1102.890625 C 717.007813 1100.761719 718.738281 1099.03125 720.871094 1099.03125 C 723.003906 1099.03125 724.734375 1100.761719 724.734375 1102.890625 "/>
<path style=" stroke:none;fill-rule:nonzero;fill:rgb(6.272888%,12.547302%,28.24707%);fill-opacity:1;" d="M 750.882813 1090.011719 C 750.882813 1092.148438 749.152344 1093.878906 747.019531 1093.878906 C 744.886719 1093.878906 743.15625 1092.148438 743.15625 1090.011719 C 743.15625 1087.878906 744.886719 1086.148438 747.019531 1086.148438 C 749.152344 1086.148438 750.882813 1087.878906 750.882813 1090.011719 "/>
<path style=" stroke:none;fill-rule:nonzero;fill:rgb(6.272888%,12.547302%,28.24707%);fill-opacity:1;" d="M 744.34375 1114.78125 C 744.074219 1114.78125 743.804688 1114.679688 743.589844 1114.480469 C 743.152344 1114.058594 743.136719 1113.371094 743.550781 1112.929688 C 745.101563 1111.300781 746.796875 1109.011719 746.085938 1107.351563 C 745.34375 1105.621094 742.214844 1104.878906 740.777344 1104.878906 C 737.695313 1104.878906 736.21875 1099.390625 735.953125 1098.289063 C 735.8125 1097.710938 736.171875 1097.121094 736.757813 1096.96875 C 737.34375 1096.828125 737.9375 1097.191406 738.078125 1097.78125 C 738.640625 1100.101563 739.914063 1102.691406 740.777344 1102.691406 C 742.253906 1102.691406 746.765625 1103.378906 748.09375 1106.480469 C 749.046875 1108.699219 748.050781 1111.371094 745.136719 1114.441406 C 744.921875 1114.671875 744.632813 1114.78125 744.34375 1114.78125 "/>
<path style=" stroke:none;fill-rule:nonzero;fill:rgb(6.272888%,12.547302%,28.24707%);fill-opacity:1;" d="M 744.542969 1129.441406 C 744.332031 1129.441406 744.117188 1129.378906 743.929688 1129.25 C 736.65625 1124.339844 729.3125 1128.460938 729.238281 1128.5 C 728.71875 1128.800781 728.050781 1128.621094 727.746094 1128.101563 C 727.445313 1127.570313 727.625 1126.910156 728.148438 1126.601563 C 728.496094 1126.398438 736.761719 1121.769531 745.15625 1127.441406 C 745.65625 1127.78125 745.789063 1128.460938 745.449219 1128.960938 C 745.238281 1129.269531 744.894531 1129.441406 744.542969 1129.441406 "/>
<path style=" stroke:none;fill-rule:nonzero;fill:rgb(6.272888%,12.547302%,28.24707%);fill-opacity:1;" d="M 719.179688 1086.160156 C 721.375 1090.289063 717.546875 1091.128906 713.058594 1093.511719 C 708.574219 1095.890625 703.980469 1096.769531 702.929688 1094.789063 C 701.882813 1092.820313 704.667969 1089.289063 709.15625 1086.898438 C 713.644531 1084.519531 717.476563 1082.960938 719.179688 1086.160156 "/>
<path style=" stroke:none;fill-rule:nonzero;fill:rgb(6.272888%,12.547302%,28.24707%);fill-opacity:1;" d="M 735.542969 1078.691406 C 736.507813 1082.378906 739.261719 1080.769531 743.265625 1079.71875 C 747.269531 1078.671875 750.503906 1076.660156 750.042969 1074.898438 C 749.585938 1073.140625 745.964844 1072.558594 741.960938 1073.609375 C 737.953125 1074.660156 734.792969 1075.828125 735.542969 1078.691406 "/>
<path style=" stroke:none;fill-rule:nonzero;fill:rgb(95.3125%,56.834412%,46.263123%);fill-opacity:1;" d="M 703.042969 1132.308594 C 696.75 1132.308594 691.652344 1127.210938 691.652344 1120.921875 C 691.652344 1114.621094 696.75 1109.53125 703.042969 1109.53125 C 709.332031 1109.53125 714.433594 1114.621094 714.433594 1120.921875 C 714.433594 1127.210938 709.332031 1132.308594 703.042969 1132.308594 "/>
<path style=" stroke:none;fill-rule:nonzero;fill:rgb(97.65625%,70.117188%,51.756287%);fill-opacity:1;" d="M 669.210938 1108.75 C 676.875 1114.660156 678.867188 1124.921875 673.664063 1131.671875 C 668.457031 1138.410156 658.023438 1139.078125 650.359375 1133.171875 C 642.695313 1127.261719 640.703125 1116.988281 645.90625 1110.25 C 651.113281 1103.5 661.546875 1102.828125 669.210938 1108.75 "/>
<path style=" stroke:none;fill-rule:nonzero;fill:rgb(6.272888%,12.547302%,28.24707%);fill-opacity:1;" d="M 666.5625 1126.671875 C 665.957031 1126.671875 665.46875 1126.179688 665.46875 1125.578125 C 665.46875 1122.351563 663.894531 1119.371094 661.257813 1117.589844 C 659.003906 1116.078125 656.316406 1115.71875 654.070313 1116.640625 C 653.511719 1116.859375 652.871094 1116.601563 652.644531 1116.039063 C 652.417969 1115.480469 652.683594 1114.839844 653.242188 1114.609375 C 656.164063 1113.421875 659.617188 1113.859375 662.480469 1115.78125 C 665.722656 1117.960938 667.65625 1121.621094 667.65625 1125.578125 C 667.65625 1126.179688 667.167969 1126.671875 666.5625 1126.671875 "/>
<path style=" stroke:none;fill-rule:nonzero;fill:rgb(6.272888%,12.547302%,28.24707%);fill-opacity:1;" d="M 472.167969 1250.488281 L 470.332031 1248.789063 L 509.808594 1206.101563 L 511.644531 1207.800781 L 472.167969 1250.488281 "/>
<path style=" stroke:none;fill-rule:nonzero;fill:rgb(6.272888%,12.547302%,28.24707%);fill-opacity:1;" d="M 787.863281 1389.589844 L 787.136719 1387.199219 C 815.867188 1378.441406 843.753906 1367.960938 869.023438 1336.359375 L 870.976563 1337.921875 C 845.261719 1370.078125 816.988281 1380.710938 787.863281 1389.589844 "/>
<path style=" stroke:none;fill-rule:nonzero;fill:rgb(82.8125%,87.5%,100%);fill-opacity:1;" d="M 805.335938 1292.78125 L 560.914063 1292.78125 C 552.125 1292.78125 545 1300.488281 545 1309.988281 L 545 1484.5 C 545 1494.011719 552.125 1501.71875 560.914063 1501.71875 L 805.335938 1501.71875 C 814.125 1501.71875 821.25 1494.011719 821.25 1484.5 L 821.25 1309.988281 C 821.25 1300.488281 814.125 1292.78125 805.335938 1292.78125 "/>
<path style=" stroke:none;fill-rule:nonzero;fill:rgb(12.156677%,23.535156%,53.318787%);fill-opacity:1;" d="M 696.027344 1381.21875 L 670.222656 1381.21875 C 666.539063 1381.21875 663.542969 1384.28125 663.542969 1388.039063 L 663.542969 1406.460938 C 663.542969 1410.21875 666.539063 1413.28125 670.222656 1413.28125 L 696.027344 1413.28125 C 699.710938 1413.28125 702.707031 1410.21875 702.707031 1406.460938 L 702.707031 1388.039063 C 702.707031 1384.28125 699.710938 1381.21875 696.027344 1381.21875 Z M 696.027344 1386.21875 C 696.957031 1386.21875 697.707031 1387.03125 697.707031 1388.039063 L 697.707031 1406.460938 C 697.707031 1407.460938 696.957031 1408.28125 696.027344 1408.28125 L 670.222656 1408.28125 C 669.292969 1408.28125 668.542969 1407.460938 668.542969 1406.460938 L 668.542969 1388.039063 C 668.542969 1387.03125 669.292969 1386.21875 670.222656 1386.21875 L 696.027344 1386.21875 "/>
<path style=" stroke:none;fill-rule:nonzero;fill:rgb(6.272888%,12.547302%,28.24707%);fill-opacity:1;" d="M 1753.941406 1687.140625 L 280.261719 1687.140625 L 280.261719 1682.140625 L 1753.941406 1682.140625 L 1753.941406 1687.140625 "/>
</g>
</svg>
